<svg width="964" height="603" viewBox="0 0 964 603" fill="none" xmlns="http://www.w3.org/2000/svg">
<path d="M945.3 189.133C911.009 179.253 873.706 166.582 846.991 142.304C813.143 111.601 799.453 64.7726 787.978 21.8424C785.675 19.007 783.902 15.7729 779.605 16.7475H779.694C773.624 18.0323 771.852 31.8107 770.434 36.9056C760.732 70.3105 748.282 106.861 724.536 132.956C696.403 163.968 656.574 177.392 617.764 189.133C612.714 190.639 603.321 190.993 599.91 195.645C595.701 201.272 601.017 205.525 606.422 207.253C634.112 216.025 660.827 221.696 686.39 235.873C739.687 265.468 756.346 312.872 771.896 368.473C772.561 370.866 773.668 374.764 774.554 376.935C776.194 381.056 780.624 383.758 784.7 381.056C785.054 380.834 788.111 377.024 788.333 376.625C789.44 374.144 789.751 369.581 790.548 366.657C801.801 326.119 817.485 281.55 850.446 253.55C876.807 231.088 913.003 219.082 946.319 209.291C950.838 208.006 960.984 207.208 963.199 202.335C967.806 191.924 951.281 190.86 945.345 189.088L945.3 189.133Z" fill="#212529"/>
<path d="M177.168 401.658C170.168 381.633 165.383 360.722 162.858 338.836C114.478 363.779 66.7635 391.823 21.1309 423.278C25.2954 421.241 29.9473 419.956 34.865 419.646C35.7067 419.601 91.2191 415.791 177.212 401.658H177.168Z" fill="#212529"/>
<path d="M0.398957 458.847C-0.0883817 451.404 1.68376 444.404 5.09513 438.379C-2.03774 450.341 -1.90483 465.759 6.91158 477.809C8.63942 480.157 10.5888 482.195 12.7153 484.012C5.71538 477.765 1.06351 468.904 0.443261 458.847H0.398957Z" fill="#212529"/>
<path d="M675.541 334.444C669.117 379.811 649.269 419.817 615.376 453.931C573.332 496.241 523.314 517.994 464.168 517.994C405.023 517.994 355.005 496.285 312.96 453.931C312.119 453.045 311.321 452.114 310.479 451.228C275.347 458.982 242.518 465.361 212.657 470.589C223.29 485.874 235.429 500.538 249.341 514.494C308.441 572.797 378.928 602.525 461.953 602.525C544.978 602.525 615.465 573.949 674.566 514.494C705.756 483.127 728.616 448.526 743.369 410.646C733.8 377.109 723.3 346.761 703.939 321.773C694.503 326.115 685.066 330.324 675.629 334.444H675.541Z" fill="#212529"/>
<path d="M212.436 395.586C229.626 392.485 247.79 388.985 266.708 385.042C264.891 380.745 263.208 376.403 261.701 372.017C254.125 349.777 250.36 326.074 250.36 300.688C250.36 299.536 250.404 298.384 250.448 297.188C251.246 239.283 271.714 190.062 312.916 148.594C353.853 106.284 404.979 84.5312 464.124 84.5312C519.814 84.5312 567.396 103.803 607.889 141.373C636.288 132.202 664.288 120.816 686.794 101.101C682.806 96.6703 678.731 92.2843 674.477 87.9868C615.376 29.7277 544.845 0 461.865 0C378.884 0 308.353 28.5758 249.252 88.0311C190.151 146.335 160.601 217.265 160.601 300.688C160.601 313.713 161.398 326.429 162.86 338.834C165.385 360.719 170.17 381.631 177.17 401.656C188.423 399.795 200.164 397.802 212.391 395.586H212.436Z" fill="#212529"/>
<path d="M15.3317 427.259C17.2368 425.93 19.1861 424.601 21.1355 423.271C15.376 426.063 10.5026 430.271 6.91406 435.455C9.17354 432.354 12.009 429.563 15.3317 427.214V427.259Z" fill="#212529"/>
<path d="M338.746 444.762C392.841 432.135 455.22 415.3 521.587 393.281C571.295 376.711 623.219 357.218 675.542 334.401C684.978 330.281 694.415 326.072 703.852 321.731C696.542 312.294 688.035 303.566 677.713 295.769C672.13 291.56 666.061 287.573 659.415 283.895C650.909 279.155 642.27 275.433 633.542 272.199C521.1 320.136 410.917 351.99 323.373 372.547C303.835 377.154 284.917 381.275 266.709 385.04C247.791 388.939 229.671 392.439 212.437 395.585C200.209 397.8 188.424 399.838 177.215 401.654C91.2222 415.787 35.7099 419.597 34.8681 419.641C29.9504 419.952 25.3428 421.236 21.134 423.274C19.2289 424.603 17.2796 425.888 15.3302 427.262C11.9632 429.61 9.17204 432.401 6.91256 435.502C6.20371 436.432 5.67206 437.451 5.09612 438.426C1.68475 444.451 -0.0873965 451.496 0.399942 458.894C1.0645 468.996 5.67206 477.856 12.672 484.059C13.0265 484.369 13.4252 484.679 13.8239 484.989C14.1783 485.255 14.4885 485.565 14.8429 485.831C21.6656 491.059 30.3491 493.938 39.6086 493.363C43.3744 493.097 110.45 488.578 212.57 470.635C242.43 465.407 275.259 459.027 310.392 451.274C319.696 449.236 329.088 447.11 338.702 444.85L338.746 444.762Z" fill="#212529"/>
<path d="M5.09668 438.379C5.67263 437.404 6.20427 436.385 6.91312 435.455C6.24857 436.385 5.67263 437.36 5.09668 438.379Z" fill="#212529"/>
</svg>
