<svg width="1080" height="1080" viewBox="0 0 1080 1080" fill="none" xmlns="http://www.w3.org/2000/svg">
<path d="M882.746 381.027C894.249 392.529 900 407.471 900 425.74V855.446C900 873.095 894.249 887.811 882.746 899.652C871.244 911.549 856.697 917.413 839.048 917.413C821.4 917.413 807.078 911.662 795.914 900.103C784.75 888.6 778.829 874.053 778.153 856.405C761.237 876.083 738.402 892.773 709.589 906.7C680.776 920.57 650.442 927.506 618.641 927.506C571.898 927.506 529.553 915.496 491.662 891.42C453.716 867.4 423.719 834.02 401.785 791.393C379.739 748.767 368.8 700.276 368.8 646.147C368.8 592.018 379.683 543.414 401.278 500.393C422.93 457.428 452.531 423.823 490.14 399.803C527.749 375.783 569.191 363.717 614.581 363.717C647.058 363.717 677.563 369.637 706.037 381.478C734.455 393.375 758.531 408.43 778.209 426.698V425.683C778.209 408.035 783.96 393.375 795.519 381.478C807.022 369.694 821.569 363.717 839.217 363.717C856.866 363.717 871.413 369.468 882.915 381.027H882.859H882.746ZM741.503 767.543C769.3 735.347 783.115 694.863 783.115 646.147C783.115 597.431 769.188 556.777 741.503 524.243C713.705 491.766 677.845 475.471 633.808 475.471C589.772 475.471 554.87 491.766 527.128 524.243C499.387 556.721 485.517 597.431 485.517 646.147C485.517 694.863 499.218 735.403 526.621 767.543C554.08 799.738 589.772 815.808 633.808 815.808C677.845 815.808 713.705 799.738 741.503 767.543Z" fill="#F8F8F8"/>
<path d="M357.237 153.175C361.466 152.217 363.158 155.374 365.413 158.137C376.634 200.144 389.997 245.928 423.151 275.981C449.257 299.719 485.738 312.123 519.287 321.765C525.094 323.457 541.277 324.528 536.766 334.677C534.623 339.47 524.7 340.203 520.245 341.443C487.655 350.972 452.302 362.757 426.478 384.69C394.226 412.037 378.889 455.622 367.894 495.317C367.161 498.192 366.823 502.647 365.751 505.071C365.526 505.522 362.538 509.187 362.199 509.413C358.196 512.063 353.911 509.413 352.275 505.409C351.43 503.267 350.358 499.489 349.682 497.121C334.458 442.71 318.163 396.362 266.063 367.436C241.029 353.566 214.923 348.04 187.858 339.413C182.558 337.722 177.37 333.606 181.486 328.08C184.813 323.513 194.004 323.175 198.966 321.709C236.969 310.263 275.874 297.125 303.39 266.79C326.62 241.248 338.8 205.5 348.272 172.854C349.682 167.892 351.373 154.416 357.35 153.119H357.237V153.175Z" fill="#E6007E"/>
<path d="M220.219 398.451C218.922 420.892 218.302 439.668 218.302 446.716V842.761C218.302 864.018 224.109 881.779 235.612 895.988C247.114 910.197 261.662 917.358 279.31 917.358C296.958 917.358 311.506 910.31 323.008 895.988C334.51 881.723 340.262 863.962 340.262 842.761V575.386C318.666 501.465 292.448 438.766 220.275 398.395L220.219 398.451Z" fill="#F8F8F8"/>
</svg>
