<svg width="2700" height="1080" viewBox="0 0 2700 1080" fill="none" xmlns="http://www.w3.org/2000/svg">
<g clip-path="url(#clip0_297_733)">
<path d="M2232.73 870.4C2233.05 868.606 2232.83 866.757 2232.09 865.089C2231.36 863.421 2230.15 862.008 2228.61 861.029C2227.07 860.05 2225.28 859.548 2223.46 859.588C2221.63 859.628 2219.87 860.207 2218.37 861.253C2216.88 862.298 2215.73 863.763 2215.07 865.461C2214.41 867.16 2214.27 869.016 2214.66 870.796C2215.06 872.575 2215.97 874.197 2217.29 875.458C2218.6 876.718 2220.26 877.559 2222.06 877.876C2223.25 878.087 2224.47 878.061 2225.65 877.799C2226.84 877.537 2227.95 877.045 2228.95 876.351C2229.94 875.657 2230.78 874.774 2231.43 873.753C2232.08 872.732 2232.52 871.593 2232.73 870.4Z" fill="#F8F8F8"/>
<path d="M2485.35 870.401C2485.67 868.605 2485.44 866.755 2484.71 865.085C2483.98 863.415 2482.76 862 2481.22 861.02C2479.69 860.039 2477.89 859.537 2476.07 859.576C2474.24 859.616 2472.47 860.196 2470.98 861.242C2469.48 862.288 2468.33 863.754 2467.67 865.455C2467.01 867.155 2466.87 869.013 2467.27 870.794C2467.66 872.575 2468.58 874.198 2469.89 875.459C2471.21 876.72 2472.88 877.561 2474.67 877.877C2475.86 878.088 2477.09 878.062 2478.27 877.8C2479.45 877.538 2480.57 877.046 2481.56 876.352C2482.55 875.658 2483.4 874.775 2484.05 873.754C2484.7 872.733 2485.14 871.593 2485.35 870.401Z" fill="#F8F8F8"/>
<path d="M2232.37 920.124V1023.8C2232.37 1029.59 2229.49 1032.49 2223.75 1032.49C2218.01 1032.49 2215.14 1029.59 2215.14 1023.8V920.124C2215.14 914.415 2218.01 911.563 2223.75 911.566C2229.49 911.57 2232.36 914.423 2232.37 920.124Z" fill="#F8F8F8"/>
<path d="M2445.43 1024.18C2445.43 1029.72 2442.45 1032.49 2436.49 1032.49C2431.96 1032.49 2429.21 1030.24 2428.25 1025.74L2399.55 896.587L2358.96 991.267C2357.06 995.781 2354.21 998.039 2350.4 998.039C2346.6 998.039 2343.75 995.781 2341.85 991.267L2301.18 896.366L2272.44 1025.71C2271.5 1030.23 2268.77 1032.49 2264.26 1032.49C2258.34 1032.49 2255.38 1029.72 2255.38 1024.18C2255.38 1023.45 2255.5 1022.73 2255.74 1022.04L2289.96 868.087C2291.12 862.544 2294.06 859.773 2298.76 859.773C2302.48 859.773 2305.3 861.984 2307.21 866.405L2350.41 967.2L2393.61 866.388C2395.51 861.967 2398.32 859.756 2402.06 859.756C2406.74 859.756 2409.72 862.527 2410.99 868.069L2445.2 1022.02C2445.36 1022.72 2445.44 1023.44 2445.43 1024.16" fill="#E6007E"/>
<path d="M2485.59 920.124V1023.8C2485.59 1029.59 2482.71 1032.49 2476.97 1032.49C2471.23 1032.49 2468.36 1029.59 2468.36 1023.8V920.124C2468.36 914.415 2471.23 911.563 2476.97 911.566C2482.71 911.57 2485.58 914.423 2485.59 920.124Z" fill="#F8F8F8"/>
<path d="M2629.55 971.964C2629.55 988.691 2623.63 1002.96 2611.8 1014.77C2599.96 1026.58 2585.73 1032.49 2569.09 1032.49C2552.46 1032.49 2538.23 1026.58 2526.38 1014.77C2514.54 1002.96 2508.62 988.688 2508.62 971.964C2508.62 955.322 2514.54 941.094 2526.38 929.281C2538.23 917.467 2552.46 911.563 2569.09 911.566C2585.72 911.566 2599.95 917.471 2611.8 929.281C2623.64 941.09 2629.56 955.318 2629.55 971.964ZM2612.33 971.964C2612.33 960.147 2608.1 949.997 2599.64 941.515C2591.18 933.033 2581 928.79 2569.09 928.786C2557.18 928.786 2546.99 933.029 2538.54 941.515C2530.08 950.001 2525.85 960.151 2525.85 971.964C2525.85 983.863 2530.08 994.053 2538.54 1002.54C2547 1011.02 2557.18 1015.26 2569.09 1015.26C2581 1015.26 2591.18 1011.02 2599.64 1002.54C2608.1 994.049 2612.33 983.859 2612.33 971.964Z" fill="#F8F8F8"/>
<path d="M2085.24 961.871C2086.91 961.871 2088.54 961.376 2089.93 960.448C2091.32 959.52 2092.4 958.201 2093.04 956.659C2093.68 955.116 2093.85 953.418 2093.52 951.781C2093.19 950.143 2092.39 948.639 2091.21 947.459C2090.03 946.278 2088.52 945.475 2086.88 945.15C2085.25 944.825 2083.55 944.993 2082.01 945.633C2080.46 946.272 2079.15 947.355 2078.22 948.744C2077.29 950.133 2076.8 951.766 2076.8 953.435C2076.8 954.544 2077.02 955.641 2077.44 956.665C2077.87 957.689 2078.49 958.619 2079.27 959.402C2080.06 960.186 2080.99 960.807 2082.01 961.23C2083.04 961.654 2084.13 961.872 2085.24 961.871Z" fill="#E6007E"/>
<path d="M2114.39 960.34C2115.76 960.34 2117.09 959.935 2118.23 959.176C2119.36 958.418 2120.25 957.339 2120.77 956.077C2121.3 954.816 2121.43 953.427 2121.17 952.088C2120.9 950.748 2120.24 949.518 2119.28 948.552C2118.31 947.586 2117.08 946.928 2115.74 946.662C2114.4 946.396 2113.01 946.532 2111.75 947.055C2110.49 947.578 2109.41 948.463 2108.65 949.598C2107.89 950.734 2107.49 952.069 2107.49 953.435C2107.49 955.266 2108.21 957.023 2109.51 958.318C2110.8 959.613 2112.56 960.34 2114.39 960.34Z" fill="#E6007E"/>
<path d="M2141.61 957.926C2142.5 957.926 2143.37 957.662 2144.11 957.167C2144.85 956.673 2145.43 955.97 2145.77 955.148C2146.11 954.326 2146.2 953.422 2146.02 952.549C2145.85 951.677 2145.42 950.875 2144.79 950.247C2144.16 949.618 2143.36 949.19 2142.49 949.017C2141.61 948.844 2140.71 948.934 2139.89 949.276C2139.07 949.617 2138.36 950.194 2137.87 950.934C2137.38 951.675 2137.12 952.545 2137.12 953.434C2137.12 954.626 2137.59 955.768 2138.44 956.61C2139.28 957.453 2140.42 957.926 2141.61 957.926Z" fill="#E6007E"/>
<path d="M2097.59 935.615C2098.86 934.543 2099.79 933.115 2100.26 931.514C2100.73 929.912 2100.71 928.208 2100.2 926.618C2099.7 925.027 2098.74 923.621 2097.44 922.577C2096.14 921.533 2094.56 920.898 2092.9 920.753C2091.23 920.607 2089.57 920.958 2088.1 921.76C2086.64 922.562 2085.45 923.779 2084.68 925.258C2083.91 926.737 2083.59 928.412 2083.77 930.07C2083.95 931.728 2084.62 933.296 2085.69 934.574C2086.41 935.424 2087.28 936.125 2088.26 936.637C2089.25 937.149 2090.32 937.463 2091.42 937.559C2092.53 937.656 2093.64 937.534 2094.7 937.201C2095.76 936.867 2096.74 936.328 2097.59 935.615Z" fill="#F8F8F8"/>
<path d="M2118.92 915.685C2119.97 914.807 2120.73 913.64 2121.11 912.33C2121.49 911.02 2121.48 909.626 2121.06 908.325C2120.65 907.025 2119.87 905.875 2118.8 905.021C2117.74 904.168 2116.44 903.649 2115.09 903.53C2113.73 903.411 2112.36 903.698 2111.17 904.354C2109.97 905.011 2109 906.007 2108.37 907.217C2107.74 908.427 2107.48 909.796 2107.63 911.152C2107.77 912.509 2108.32 913.79 2109.2 914.836C2109.78 915.532 2110.49 916.105 2111.3 916.525C2112.1 916.944 2112.98 917.2 2113.89 917.279C2114.79 917.358 2115.7 917.258 2116.56 916.985C2117.43 916.711 2118.23 916.269 2118.92 915.685Z" fill="#F8F8F8"/>
<path d="M2138.24 896.335C2138.92 895.766 2139.42 895.008 2139.68 894.155C2139.93 893.302 2139.92 892.393 2139.66 891.544C2139.4 890.694 2138.89 889.942 2138.2 889.382C2137.5 888.822 2136.66 888.479 2135.78 888.398C2134.89 888.316 2134 888.5 2133.22 888.924C2132.44 889.349 2131.8 889.996 2131.38 890.783C2130.97 891.57 2130.8 892.463 2130.89 893.348C2130.99 894.232 2131.34 895.07 2131.91 895.753C2132.29 896.208 2132.75 896.584 2133.27 896.86C2133.79 897.135 2134.37 897.305 2134.95 897.359C2135.54 897.413 2136.13 897.35 2136.7 897.175C2137.26 896.999 2137.79 896.714 2138.24 896.335Z" fill="#F8F8F8"/>
<path d="M2078.4 917.407C2078.69 915.763 2078.49 914.069 2077.82 912.54C2077.14 911.012 2076.03 909.716 2074.63 908.819C2073.22 907.921 2071.58 907.46 2069.91 907.496C2068.24 907.532 2066.62 908.062 2065.25 909.019C2063.88 909.976 2062.83 911.317 2062.22 912.873C2061.62 914.429 2061.49 916.13 2061.85 917.76C2062.21 919.39 2063.04 920.877 2064.25 922.032C2065.45 923.187 2066.98 923.958 2068.62 924.248C2070.82 924.637 2073.09 924.135 2074.93 922.852C2076.76 921.569 2078.01 919.61 2078.4 917.407Z" fill="#F8F8F8"/>
<path d="M2081.95 888.43C2082.19 887.085 2082.02 885.7 2081.47 884.45C2080.92 883.2 2080.01 882.141 2078.86 881.407C2077.71 880.674 2076.36 880.298 2075 880.328C2073.63 880.358 2072.3 880.792 2071.19 881.575C2070.07 882.359 2069.21 883.457 2068.71 884.729C2068.22 886.002 2068.11 887.394 2068.41 888.727C2068.7 890.06 2069.39 891.276 2070.37 892.22C2071.36 893.165 2072.6 893.795 2073.95 894.032C2074.84 894.19 2075.76 894.17 2076.64 893.973C2077.53 893.777 2078.37 893.408 2079.11 892.888C2079.85 892.368 2080.48 891.706 2080.97 890.941C2081.46 890.176 2081.79 889.323 2081.95 888.43Z" fill="#F8F8F8"/>
<path d="M2084.3 861.191C2084.46 860.317 2084.35 859.416 2083.99 858.603C2083.63 857.79 2083.04 857.102 2082.29 856.624C2081.55 856.146 2080.67 855.901 2079.78 855.919C2078.9 855.937 2078.03 856.217 2077.3 856.725C2076.58 857.233 2076.01 857.945 2075.69 858.772C2075.36 859.598 2075.29 860.503 2075.48 861.37C2075.67 862.238 2076.11 863.031 2076.75 863.648C2077.39 864.265 2078.19 864.68 2079.07 864.839C2079.65 864.946 2080.25 864.937 2080.83 864.811C2081.41 864.685 2081.96 864.446 2082.45 864.107C2082.93 863.768 2083.35 863.335 2083.67 862.835C2083.99 862.335 2084.2 861.776 2084.3 861.191Z" fill="#F8F8F8"/>
<path d="M2052.02 915.795C2051.19 914.351 2049.94 913.187 2048.45 912.45C2046.95 911.713 2045.27 911.436 2043.62 911.655C2041.96 911.873 2040.41 912.576 2039.16 913.676C2037.9 914.776 2037 916.223 2036.57 917.835C2036.14 919.446 2036.2 921.149 2036.73 922.728C2037.27 924.307 2038.26 925.693 2039.58 926.708C2040.91 927.724 2042.5 928.325 2044.17 928.435C2045.83 928.544 2047.49 928.158 2048.93 927.325C2050.87 926.206 2052.29 924.362 2052.87 922.2C2053.45 920.037 2053.14 917.734 2052.02 915.795Z" fill="#F8F8F8"/>
<path d="M2036.1 891.314C2035.42 890.132 2034.4 889.179 2033.17 888.576C2031.95 887.972 2030.57 887.746 2029.22 887.925C2027.86 888.104 2026.59 888.68 2025.57 889.581C2024.54 890.482 2023.8 891.667 2023.45 892.986C2023.1 894.305 2023.14 895.699 2023.58 896.992C2024.02 898.285 2024.84 899.419 2025.92 900.25C2027 901.081 2028.31 901.572 2029.67 901.661C2031.03 901.75 2032.39 901.433 2033.58 900.75C2034.36 900.297 2035.05 899.693 2035.6 898.973C2036.15 898.253 2036.56 897.432 2036.79 896.556C2037.03 895.679 2037.09 894.765 2036.97 893.866C2036.85 892.967 2036.55 892.1 2036.1 891.314Z" fill="#F8F8F8"/>
<path d="M2020.4 868.94C2019.95 868.171 2019.29 867.551 2018.5 867.158C2017.7 866.766 2016.8 866.618 2015.92 866.734C2015.04 866.85 2014.22 867.224 2013.55 867.809C2012.88 868.395 2012.4 869.165 2012.17 870.023C2011.94 870.881 2011.97 871.787 2012.26 872.628C2012.54 873.469 2013.07 874.207 2013.77 874.748C2014.48 875.289 2015.33 875.609 2016.21 875.668C2017.1 875.726 2017.98 875.521 2018.75 875.078C2019.26 874.783 2019.71 874.391 2020.07 873.923C2020.43 873.455 2020.7 872.921 2020.85 872.351C2021 871.78 2021.04 871.186 2020.96 870.6C2020.89 870.015 2020.69 869.451 2020.4 868.94Z" fill="#F8F8F8"/>
<path d="M2030.75 931.543C2029.19 930.973 2027.48 930.881 2025.86 931.277C2024.24 931.674 2022.78 932.543 2021.65 933.773C2020.52 935.003 2019.79 936.54 2019.53 938.188C2019.28 939.837 2019.52 941.524 2020.23 943.036C2020.93 944.548 2022.07 945.817 2023.5 946.682C2024.92 947.547 2026.57 947.971 2028.24 947.898C2029.91 947.825 2031.51 947.26 2032.86 946.274C2034.2 945.288 2035.23 943.925 2035.8 942.358C2036.18 941.316 2036.35 940.211 2036.3 939.103C2036.25 937.996 2035.99 936.91 2035.52 935.905C2035.05 934.901 2034.39 933.999 2033.57 933.25C2032.75 932.502 2031.8 931.921 2030.75 931.543Z" fill="#F8F8F8"/>
<path d="M2002.84 923.003C2001.55 922.538 2000.16 922.464 1998.84 922.789C1997.51 923.115 1996.31 923.826 1995.39 924.832C1994.47 925.839 1993.87 927.096 1993.66 928.444C1993.46 929.792 1993.65 931.172 1994.23 932.408C1994.81 933.644 1995.74 934.681 1996.91 935.389C1998.07 936.096 1999.42 936.442 2000.78 936.382C2002.15 936.323 2003.46 935.861 2004.56 935.054C2005.66 934.248 2006.5 933.133 2006.97 931.852C2007.28 930.999 2007.42 930.094 2007.38 929.188C2007.34 928.282 2007.12 927.393 2006.74 926.571C2006.35 925.749 2005.81 925.011 2005.14 924.399C2004.47 923.787 2003.69 923.312 2002.84 923.003Z" fill="#F8F8F8"/>
<path d="M1976.42 915.953C1975.59 915.649 1974.68 915.599 1973.82 915.81C1972.95 916.022 1972.17 916.485 1971.57 917.14C1970.97 917.796 1970.58 918.616 1970.44 919.495C1970.3 920.374 1970.43 921.274 1970.81 922.08C1971.19 922.886 1971.79 923.563 1972.55 924.024C1973.31 924.485 1974.19 924.711 1975.08 924.671C1975.97 924.632 1976.83 924.33 1977.55 923.803C1978.26 923.276 1978.81 922.549 1979.11 921.713C1979.52 920.593 1979.46 919.357 1978.96 918.277C1978.46 917.197 1977.54 916.361 1976.42 915.953Z" fill="#F8F8F8"/>
<path d="M2024.59 957.239C2023.02 957.809 2021.65 958.832 2020.66 960.179C2019.68 961.525 2019.11 963.134 2019.04 964.802C2018.96 966.47 2019.39 968.123 2020.25 969.55C2021.12 970.978 2022.39 972.117 2023.9 972.823C2025.42 973.528 2027.1 973.769 2028.75 973.515C2030.41 973.261 2031.94 972.523 2033.17 971.395C2034.41 970.267 2035.27 968.799 2035.67 967.177C2036.07 965.555 2035.97 963.852 2035.4 962.283C2034.63 960.182 2033.06 958.472 2031.04 957.527C2029.01 956.581 2026.69 956.478 2024.59 957.239Z" fill="#F8F8F8"/>
<path d="M1997.72 968.654C1996.44 969.121 1995.32 969.958 1994.51 971.06C1993.71 972.161 1993.24 973.477 1993.18 974.842C1993.12 976.207 1993.47 977.558 1994.18 978.726C1994.89 979.894 1995.93 980.825 1997.17 981.402C1998.4 981.979 1999.79 982.176 2001.14 981.968C2002.49 981.76 2003.74 981.156 2004.75 980.233C2005.76 979.31 2006.47 978.109 2006.79 976.782C2007.12 975.455 2007.04 974.062 2006.57 972.779C2006.26 971.927 2005.79 971.144 2005.17 970.475C2004.56 969.807 2003.82 969.265 2003 968.882C2002.18 968.499 2001.29 968.282 2000.38 968.243C1999.48 968.204 1998.57 968.343 1997.72 968.654Z" fill="#F8F8F8"/>
<path d="M1972.96 980.231C1972.12 980.534 1971.39 981.079 1970.87 981.796C1970.34 982.513 1970.04 983.37 1970 984.259C1969.96 985.148 1970.18 986.028 1970.65 986.789C1971.11 987.55 1971.78 988.157 1972.59 988.533C1973.4 988.909 1974.3 989.038 1975.17 988.903C1976.05 988.767 1976.87 988.374 1977.53 987.773C1978.19 987.172 1978.65 986.39 1978.86 985.526C1979.07 984.662 1979.02 983.754 1978.72 982.918C1978.31 981.799 1977.47 980.887 1976.39 980.383C1975.31 979.879 1974.08 979.824 1972.96 980.231Z" fill="#F8F8F8"/>
<path d="M2036.39 980.905C2035.56 982.351 2035.18 984.011 2035.29 985.675C2035.4 987.339 2036 988.933 2037.01 990.256C2038.03 991.579 2039.42 992.571 2040.99 993.107C2042.57 993.643 2044.28 993.7 2045.89 993.269C2047.5 992.839 2048.95 991.94 2050.05 990.688C2051.15 989.435 2051.86 987.884 2052.08 986.231C2052.3 984.578 2052.02 982.896 2051.29 981.399C2050.55 979.901 2049.39 978.655 2047.95 977.816C2046.01 976.697 2043.71 976.394 2041.55 976.973C2039.38 977.552 2037.54 978.967 2036.42 980.905" fill="#F8F8F8"/>
<path d="M2023.14 1006.92C2022.46 1008.1 2022.15 1009.46 2022.24 1010.82C2022.33 1012.18 2022.82 1013.49 2023.65 1014.57C2024.48 1015.65 2025.62 1016.47 2026.91 1016.9C2028.2 1017.34 2029.6 1017.39 2030.92 1017.03C2032.23 1016.68 2033.42 1015.94 2034.32 1014.92C2035.22 1013.89 2035.8 1012.62 2035.97 1011.27C2036.15 1009.91 2035.92 1008.54 2035.32 1007.31C2034.72 1006.09 2033.76 1005.07 2032.58 1004.38C2031.8 1003.93 2030.93 1003.64 2030.03 1003.52C2029.13 1003.4 2028.21 1003.46 2027.34 1003.69C2026.46 1003.93 2025.64 1004.34 2024.92 1004.89C2024.2 1005.44 2023.6 1006.13 2023.14 1006.92Z" fill="#F8F8F8"/>
<path d="M2011.61 1031.7C2011.17 1032.47 2010.96 1033.36 2011.02 1034.25C2011.08 1035.13 2011.4 1035.98 2011.94 1036.69C2012.48 1037.4 2013.22 1037.92 2014.06 1038.21C2014.91 1038.5 2015.81 1038.53 2016.67 1038.3C2017.53 1038.07 2018.3 1037.59 2018.89 1036.92C2019.48 1036.25 2019.85 1035.42 2019.97 1034.54C2020.08 1033.66 2019.94 1032.76 2019.54 1031.96C2019.15 1031.17 2018.53 1030.5 2017.76 1030.06C2016.72 1029.46 2015.5 1029.3 2014.35 1029.61C2013.19 1029.92 2012.21 1030.67 2011.61 1031.7Z" fill="#F8F8F8"/>
<path d="M2060.64 991.464C2060.93 993.108 2061.71 994.629 2062.86 995.835C2064.01 997.041 2065.5 997.878 2067.13 998.239C2068.76 998.6 2070.46 998.47 2072.02 997.865C2073.57 997.26 2074.91 996.207 2075.87 994.839C2076.83 993.472 2077.36 991.851 2077.4 990.182C2077.43 988.513 2076.97 986.87 2076.08 985.462C2075.18 984.054 2073.89 982.944 2072.36 982.272C2070.83 981.599 2069.14 981.395 2067.49 981.685C2066.4 981.876 2065.36 982.281 2064.42 982.876C2063.48 983.471 2062.68 984.245 2062.04 985.154C2061.4 986.062 2060.95 987.087 2060.71 988.17C2060.47 989.253 2060.45 990.372 2060.64 991.464Z" fill="#F8F8F8"/>
<path d="M2067.22 1019.88C2067.46 1021.23 2068.09 1022.47 2069.03 1023.46C2069.97 1024.45 2071.19 1025.13 2072.52 1025.43C2073.86 1025.72 2075.25 1025.62 2076.52 1025.12C2077.79 1024.63 2078.89 1023.76 2079.67 1022.65C2080.46 1021.53 2080.89 1020.2 2080.92 1018.84C2080.95 1017.47 2080.58 1016.13 2079.84 1014.98C2079.11 1013.82 2078.05 1012.91 2076.8 1012.36C2075.55 1011.81 2074.17 1011.65 2072.82 1011.88C2071.93 1012.04 2071.07 1012.37 2070.31 1012.86C2069.54 1013.34 2068.88 1013.98 2068.36 1014.72C2067.84 1015.46 2067.47 1016.3 2067.27 1017.19C2067.08 1018.07 2067.06 1018.99 2067.22 1019.88Z" fill="#F8F8F8"/>
<path d="M2074.32 1046.28C2074.48 1047.16 2074.89 1047.96 2075.51 1048.6C2076.12 1049.24 2076.92 1049.68 2077.78 1049.87C2078.65 1050.06 2079.56 1049.99 2080.38 1049.66C2081.21 1049.34 2081.92 1048.77 2082.43 1048.05C2082.94 1047.32 2083.22 1046.45 2083.24 1045.57C2083.25 1044.68 2083.01 1043.81 2082.53 1043.06C2082.05 1042.31 2081.36 1041.72 2080.55 1041.36C2079.74 1041 2078.84 1040.89 2077.96 1041.05C2077.38 1041.15 2076.82 1041.37 2076.32 1041.69C2075.82 1042.01 2075.39 1042.42 2075.05 1042.91C2074.71 1043.39 2074.47 1043.94 2074.35 1044.52C2074.22 1045.1 2074.21 1045.7 2074.32 1046.28Z" fill="#F8F8F8"/>
<path d="M2086 983.902C2087.28 984.975 2088.84 985.645 2090.5 985.826C2092.16 986.008 2093.84 985.694 2095.32 984.923C2096.8 984.152 2098.02 982.959 2098.82 981.495C2099.63 980.031 2099.98 978.362 2099.83 976.699C2099.69 975.036 2099.05 973.453 2098.01 972.151C2096.96 970.849 2095.55 969.886 2093.96 969.384C2092.37 968.883 2090.66 968.864 2089.06 969.332C2087.46 969.799 2086.03 970.731 2084.96 972.011C2084.24 972.86 2083.7 973.841 2083.37 974.898C2083.04 975.955 2082.91 977.068 2083.01 978.172C2083.11 979.276 2083.42 980.351 2083.93 981.334C2084.45 982.317 2085.15 983.19 2086 983.902Z" fill="#F8F8F8"/>
<path d="M2109.31 1001.49C2110.36 1002.36 2111.64 1002.91 2113 1003.06C2114.36 1003.2 2115.73 1002.94 2116.94 1002.31C2118.15 1001.68 2119.15 1000.7 2119.8 999.505C2120.46 998.308 2120.74 996.942 2120.62 995.582C2120.5 994.222 2119.98 992.928 2119.13 991.864C2118.27 990.8 2117.12 990.013 2115.82 989.603C2114.51 989.194 2113.12 989.179 2111.81 989.562C2110.5 989.945 2109.33 990.708 2108.45 991.754C2107.87 992.449 2107.43 993.252 2107.16 994.118C2106.88 994.983 2106.78 995.894 2106.86 996.798C2106.94 997.702 2107.2 998.581 2107.62 999.386C2108.04 1000.19 2108.61 1000.9 2109.31 1001.49" fill="#F8F8F8"/>
<path d="M2131.72 1017.15C2132.4 1017.72 2133.24 1018.08 2134.12 1018.17C2135.01 1018.27 2135.9 1018.1 2136.69 1017.69C2137.48 1017.28 2138.13 1016.65 2138.56 1015.87C2138.98 1015.09 2139.17 1014.2 2139.09 1013.31C2139.02 1012.43 2138.68 1011.58 2138.12 1010.89C2137.57 1010.2 2136.82 1009.68 2135.97 1009.42C2135.12 1009.15 2134.21 1009.14 2133.36 1009.39C2132.5 1009.64 2131.74 1010.13 2131.17 1010.81C2130.79 1011.26 2130.5 1011.79 2130.32 1012.35C2130.15 1012.91 2130.08 1013.51 2130.13 1014.1C2130.18 1014.68 2130.35 1015.26 2130.62 1015.78C2130.9 1016.3 2131.27 1016.77 2131.72 1017.15Z" fill="#F8F8F8"/>
<path d="M2073.36 953.434C2073.35 951.093 2074.05 948.803 2075.34 946.853C2076.64 944.903 2078.48 943.38 2080.64 942.474C2078.25 938.542 2074.64 935.499 2070.35 933.811C2066.07 932.122 2061.36 931.88 2056.92 933.122C2052.49 934.364 2048.59 937.021 2045.81 940.688C2043.03 944.356 2041.52 948.832 2041.52 953.434C2041.52 958.037 2043.03 962.513 2045.81 966.18C2048.59 969.848 2052.49 972.505 2056.92 973.746C2061.36 974.988 2066.07 974.746 2070.35 973.058C2074.64 971.369 2078.25 968.327 2080.64 964.394C2078.48 963.488 2076.64 961.964 2075.34 960.014C2074.05 958.065 2073.36 955.775 2073.36 953.434Z" fill="#E6007E"/>
</g>
<path d="M1880.57 1009.24C1878.82 1009.24 1877.32 1008.63 1876.08 1007.39C1874.95 1006.15 1874.38 1004.65 1874.38 1002.9V935.442C1874.38 933.689 1874.95 932.245 1876.08 931.11C1877.32 929.872 1878.82 929.254 1880.57 929.254C1882.43 929.254 1883.92 929.872 1885.06 931.11C1886.19 932.245 1886.76 933.689 1886.76 935.442V955.866L1884.9 952.616C1885.52 949.419 1886.6 946.324 1888.15 943.333C1889.8 940.239 1891.87 937.505 1894.34 935.133C1896.82 932.657 1899.65 930.749 1902.85 929.408C1906.05 927.964 1909.56 927.242 1913.37 927.242C1915.64 927.242 1917.7 927.809 1919.56 928.944C1921.52 929.976 1922.5 931.471 1922.5 933.431C1922.5 935.597 1921.93 937.196 1920.8 938.227C1919.66 939.259 1918.37 939.775 1916.93 939.775C1915.59 939.775 1914.3 939.517 1913.06 939.001C1911.82 938.382 1910.28 938.073 1908.42 938.073C1905.84 938.073 1903.26 938.795 1900.68 940.239C1898.21 941.58 1895.89 943.539 1893.72 946.118C1891.66 948.697 1889.96 951.637 1888.62 954.937C1887.38 958.135 1886.76 961.59 1886.76 965.304V1002.9C1886.76 1004.65 1886.14 1006.15 1884.9 1007.39C1883.77 1008.63 1882.32 1009.24 1880.57 1009.24Z" fill="#F8F8F8"/>
<path d="M1845.28 928.48C1847.03 928.48 1848.48 929.099 1849.61 930.337C1850.85 931.471 1851.47 932.915 1851.47 934.669V1002.9C1851.47 1004.65 1850.85 1006.15 1849.61 1007.39C1848.48 1008.63 1847.03 1009.24 1845.28 1009.24C1843.42 1009.24 1841.93 1008.63 1840.79 1007.39C1839.66 1006.15 1839.09 1004.65 1839.09 1002.9V988.202L1842.03 987.893C1842.03 990.162 1841.25 992.638 1839.71 995.319C1838.16 998.001 1836.05 1000.53 1833.36 1002.9C1830.68 1005.17 1827.48 1007.08 1823.77 1008.63C1820.16 1010.07 1816.24 1010.79 1812.01 1010.79C1805 1010.79 1798.71 1008.99 1793.14 1005.38C1787.57 1001.66 1783.13 996.66 1779.83 990.368C1776.63 984.076 1775.03 976.908 1775.03 968.862C1775.03 960.714 1776.63 953.545 1779.83 947.356C1783.13 941.064 1787.57 936.164 1793.14 932.657C1798.71 929.047 1804.9 927.242 1811.7 927.242C1816.14 927.242 1820.26 927.964 1824.08 929.408C1827.9 930.852 1831.2 932.812 1833.98 935.288C1836.87 937.763 1839.09 940.497 1840.64 943.488C1842.29 946.479 1843.11 949.47 1843.11 952.462L1839.09 951.533V934.669C1839.09 932.915 1839.66 931.471 1840.79 930.337C1841.93 929.099 1843.42 928.48 1845.28 928.48ZM1813.4 999.342C1818.56 999.342 1823.1 998.001 1827.02 995.319C1831.04 992.638 1834.14 989.027 1836.3 984.489C1838.57 979.847 1839.71 974.638 1839.71 968.862C1839.71 963.189 1838.57 958.083 1836.3 953.545C1834.14 948.903 1831.04 945.293 1827.02 942.714C1823.1 940.032 1818.56 938.692 1813.4 938.692C1808.35 938.692 1803.81 939.981 1799.79 942.56C1795.87 945.138 1792.78 948.697 1790.51 953.235C1788.24 957.774 1787.1 962.983 1787.1 968.862C1787.1 974.638 1788.19 979.847 1790.35 984.489C1792.62 989.027 1795.72 992.638 1799.63 995.319C1803.66 998.001 1808.25 999.342 1813.4 999.342Z" fill="#F8F8F8"/>
<path d="M1732.04 900.939C1737.72 900.939 1742.82 902.332 1747.36 905.117C1751.9 907.902 1755.46 911.718 1758.04 916.566C1760.72 921.414 1762.06 926.933 1762.06 933.121C1762.06 939.207 1760.72 944.725 1758.04 949.677C1755.46 954.628 1751.9 958.547 1747.36 961.435C1742.82 964.323 1737.72 965.768 1732.04 965.768H1700.64L1701.72 963.911V1002.9C1701.72 1004.65 1701.15 1006.15 1700.02 1007.39C1698.88 1008.63 1697.44 1009.24 1695.69 1009.24C1693.83 1009.24 1692.33 1008.63 1691.2 1007.39C1690.17 1006.15 1689.65 1004.65 1689.65 1002.9V907.128C1689.65 905.375 1690.22 903.931 1691.35 902.796C1692.59 901.558 1694.09 900.939 1695.84 900.939H1732.04ZM1732.04 953.854C1735.45 953.854 1738.44 952.926 1741.02 951.069C1743.6 949.212 1745.66 946.685 1747.21 943.488C1748.75 940.29 1749.53 936.835 1749.53 933.121C1749.53 929.202 1748.75 925.746 1747.21 922.755C1745.66 919.764 1743.6 917.391 1741.02 915.638C1738.44 913.781 1735.45 912.853 1732.04 912.853H1700.64L1701.72 911.151V955.401L1700.64 953.854H1732.04Z" fill="#F8F8F8"/>
<g clip-path="url(#clip1_297_733)">
<path d="M2025.1 330.151C2046.42 363.175 2057.07 408.854 2057.07 467.238V676.753C2057.07 690.95 2052.44 702.833 2043.12 712.349C2033.85 721.917 2022.12 726.649 2007.91 726.649C1993.7 726.649 1981.96 721.865 1972.69 712.349C1963.38 702.833 1958.79 690.95 1958.79 676.753V467.238C1958.79 437.249 1952.51 413.638 1939.95 396.457C1927.39 379.276 1905.82 370.686 1875.24 370.686C1844.66 370.686 1818.71 379.842 1800.69 398.103C1782.67 416.416 1773.66 439.409 1773.66 467.238V676.753C1773.66 690.95 1769.03 702.833 1759.76 712.349C1750.45 721.917 1738.76 726.649 1724.55 726.649C1710.34 726.649 1698.6 721.865 1689.34 712.349C1680.07 702.833 1675.44 690.95 1675.44 676.753V338.793C1675.44 324.596 1680.07 312.764 1689.34 303.197C1698.6 293.68 1710.34 288.896 1724.55 288.896C1738.76 288.896 1750.5 293.68 1759.76 303.197C1769.03 312.764 1773.66 324.596 1773.66 338.793V352.682C1788.39 333.032 1807.64 316.159 1831.43 301.962C1855.16 287.765 1881.26 280.666 1909.63 280.666C1965.33 280.666 2003.84 297.178 2025.1 330.203V330.151Z" fill="#F8F8F8"/>
<path d="M2615.65 294.555C2624.92 303.815 2629.55 315.852 2629.55 330.563V676.753C2629.55 690.951 2624.92 702.833 2615.65 712.35C2606.39 721.917 2594.65 726.65 2580.44 726.65C2566.23 726.65 2554.65 722.02 2545.64 712.71C2536.63 703.451 2531.84 691.722 2531.33 677.525C2517.68 693.368 2499.25 706.846 2476.03 718.059C2452.82 729.222 2428.36 734.829 2402.72 734.829C2365.04 734.829 2330.91 725.158 2300.33 705.765C2269.75 686.424 2245.55 659.521 2227.84 625.159C2210.08 590.797 2201.22 551.754 2201.22 508.134C2201.22 464.513 2209.97 425.367 2227.43 390.696C2244.88 356.077 2268.77 329.02 2299.09 309.679C2329.41 290.337 2362.82 280.615 2399.43 280.615C2425.63 280.615 2450.19 285.399 2473.15 294.915C2496.06 304.483 2515.47 316.623 2531.33 331.335V330.512C2531.33 316.314 2535.96 304.483 2545.28 294.915C2554.54 285.399 2566.28 280.615 2580.49 280.615C2594.7 280.615 2606.44 285.245 2615.7 294.555H2615.65ZM2501.77 605.972C2524.17 580.046 2535.34 547.434 2535.34 508.185C2535.34 468.936 2524.12 436.169 2501.77 409.986C2479.38 383.804 2450.45 370.686 2414.92 370.686C2379.4 370.686 2351.29 383.804 2328.9 409.986C2306.5 436.169 2295.33 468.936 2295.33 508.185C2295.33 547.434 2306.4 580.098 2328.49 605.972C2350.62 631.898 2379.4 644.861 2414.92 644.861C2450.45 644.861 2479.33 631.898 2501.77 605.972Z" fill="#F8F8F8"/>
<path d="M1619.63 330.151H1619.89C1599.14 297.178 1561.71 280.666 1507.66 280.666C1475.43 280.666 1446.6 289.977 1421.22 308.495C1395.84 327.013 1376.84 347.795 1364.28 370.686C1345.13 310.655 1301.16 280.666 1232.38 280.666C1204.53 280.666 1179.25 287.662 1156.6 301.551C1133.95 315.491 1115.21 332.26 1100.49 351.91V338.793C1100.49 336.427 1100.33 329.019 1100.07 326.808C1070.52 346.715 1028.98 373.926 1002.26 391.262V676.753C1002.26 690.95 1006.89 702.833 1016.16 712.349C1025.43 721.865 1037.16 726.649 1051.37 726.649C1065.58 726.649 1077.27 721.917 1086.59 712.349C1095.85 702.833 1100.49 690.95 1100.49 676.753V467.238C1100.49 439.409 1109.08 416.416 1126.28 398.103C1143.47 379.842 1168.44 370.686 1197.94 370.686C1227.44 370.686 1248.03 379.276 1259.77 396.457C1271.51 413.638 1277.38 437.249 1277.38 467.238V676.753C1277.38 690.95 1281.96 702.833 1291.28 712.349C1300.55 721.865 1312.28 726.649 1326.49 726.649C1340.7 726.649 1352.44 721.917 1361.71 712.349C1371.02 702.833 1375.66 690.95 1375.66 676.753V467.238C1375.66 439.409 1384.25 416.416 1401.45 398.103C1418.64 379.842 1443.61 370.686 1473.11 370.686C1502.61 370.686 1523.2 379.276 1534.94 396.457C1546.68 413.638 1552.55 437.249 1552.55 467.238V676.753C1552.55 690.95 1557.18 702.833 1566.45 712.349C1575.72 721.865 1587.45 726.649 1601.66 726.649C1615.87 726.649 1627.61 721.917 1636.88 712.349C1646.14 702.833 1650.78 690.95 1650.78 676.753V467.238C1650.78 408.854 1640.38 363.175 1619.63 330.151Z" fill="#F8F8F8"/>
<path d="M2191.9 111.017C2195.3 110.245 2196.69 112.817 2198.49 115.029C2207.56 148.877 2218.32 185.759 2245.03 209.936C2266.09 229.071 2295.49 239.051 2322.57 246.818C2327.25 248.207 2340.33 249.03 2336.67 257.26C2334.92 261.118 2326.94 261.684 2323.34 262.713C2297.08 270.377 2268.56 279.894 2247.76 297.589C2221.76 319.657 2209.41 354.739 2200.5 386.683C2199.88 388.998 2199.63 392.598 2198.75 394.553C2198.6 394.913 2196.13 397.897 2195.87 398.051C2192.68 400.212 2189.18 398.051 2187.89 394.81C2187.17 393.113 2186.34 390.026 2185.83 388.123C2173.58 344.296 2160.45 306.951 2118.39 283.649C2098.21 272.435 2077.15 268.011 2055.32 261.118C2051.05 259.729 2046.88 256.437 2050.17 251.962C2052.85 248.31 2060.27 248.053 2064.28 246.818C2094.91 237.61 2126.32 227.014 2148.51 202.58C2167.19 182.004 2177.03 153.197 2184.7 126.86C2185.83 122.848 2187.22 111.994 2192.01 110.965H2191.9V111.017Z" fill="#E6007E"/>
<path d="M88.3491 594.038C87.9373 593.729 87.5254 593.421 87.165 593.061C87.5769 593.369 87.9373 593.729 88.3491 594.038Z" fill="#7D1751"/>
<path d="M276.979 496.354C268.845 473.103 263.285 448.823 260.351 423.412C204.132 452.373 148.686 484.934 95.6597 521.456C100.499 519.09 105.905 517.598 111.619 517.238C112.597 517.187 177.104 512.763 277.031 496.354H276.979Z" fill="#7D1751"/>
<path d="M71.5661 562.762C70.8969 552.731 73.7799 543.266 79.134 535.602C68.6317 549.799 68.0139 569.603 79.134 584.778C81.1418 587.504 83.407 589.871 85.8781 591.98C77.744 584.727 72.3384 574.439 71.6176 562.762H71.5661Z" fill="#7D1751"/>
<path d="M1085.14 194.555C1091.27 190.286 1098.12 187.817 1105.12 187.045C1104.96 187.045 1104.81 187.045 1104.66 187.045C1100.38 187.354 1027.48 192.703 915.717 212.148C927.867 233.958 937.442 256.746 944.341 280.563C992.476 254.791 1039.79 226.242 1085.14 194.504V194.555Z" fill="#7D1751"/>
<path d="M786.137 557.001C737.28 606.126 679.157 631.383 610.428 631.383C541.7 631.383 483.577 606.177 434.72 557.001C433.742 555.972 432.815 554.892 431.837 553.863C391.012 562.865 352.864 570.272 318.165 576.342C330.521 594.089 344.627 611.115 360.792 627.319C429.469 695.014 511.377 729.53 607.854 729.53C704.332 729.53 786.24 696.351 854.917 627.319C923.594 558.287 957.932 475.983 957.932 379.07C957.932 376.087 957.88 373.155 957.829 370.223C924.057 387.506 890.027 403.504 856.152 418.267C848.687 470.942 825.623 517.392 786.239 557.001H786.137Z" fill="#F8F8F8"/>
<path d="M380.973 477.063C378.862 472.074 376.906 467.033 375.155 461.94C366.352 436.117 361.976 408.597 361.976 379.122C361.976 377.785 362.027 376.447 362.079 375.058C363.006 307.826 386.79 250.677 434.669 202.529C482.238 153.404 541.648 128.147 610.377 128.147C679.105 128.147 737.228 153.353 786.085 202.529C795.609 212.097 804.155 222.076 811.826 232.364C829.639 256.438 842.303 282.467 849.922 310.604C851.261 315.542 852.394 320.532 853.423 325.573C883.798 311.633 914.172 296.664 944.289 280.563C937.39 256.747 927.866 233.959 915.665 212.148C899.809 183.754 879.576 157.056 854.762 132.159C786.136 64.5161 704.228 30 607.751 30C511.274 30 429.366 63.1787 360.689 132.211C292.012 199.906 257.673 282.261 257.673 379.122C257.673 394.245 258.6 409.009 260.299 423.412C263.233 448.823 268.793 473.103 276.928 496.353C308.383 491.209 343.288 484.831 380.921 477.063H380.973Z" fill="#F8F8F8"/>
<path d="M88.9154 526.086C91.1291 524.543 93.3943 523 95.6595 521.508C88.9669 524.749 83.3038 529.635 79.1338 535.654C81.7594 532.053 85.0542 528.812 88.9154 526.137V526.086Z" fill="#E6007E"/>
<path d="M87.1137 593.111C86.6504 592.751 86.2385 592.391 85.8267 592.031C86.2385 592.391 86.7019 592.751 87.1137 593.111Z" fill="#E6007E"/>
<path d="M1144.86 205.1C1135.6 191.829 1120.1 185.45 1105.07 187.045C1098.12 187.817 1091.27 190.234 1085.09 194.555C1039.74 226.294 992.373 254.843 944.289 280.614C914.224 296.715 883.849 311.684 853.423 325.624C707.009 392.804 560.491 435.859 446.767 462.557C424.063 467.906 402.081 472.69 380.922 477.063C343.288 484.83 308.383 491.209 276.928 496.353C177.001 512.762 112.494 517.186 111.516 517.237C105.802 517.597 100.448 519.089 95.5567 521.455C93.343 522.998 91.0778 524.49 88.8126 526.033C84.9515 528.76 81.6566 532 79.031 535.55C73.6769 543.214 70.7939 552.679 71.4632 562.71C72.2354 574.438 77.5895 584.726 85.7237 591.928C86.1355 592.288 86.5989 592.648 87.0107 593.008C87.4226 593.317 87.783 593.677 88.1948 593.985C96.1231 600.055 106.214 603.399 116.973 602.679C121.349 602.37 199.293 597.123 317.959 576.29C352.658 570.22 390.806 562.813 431.631 553.811C442.443 551.445 453.357 548.976 464.528 546.352C527.388 531.692 599.875 512.145 676.995 486.579C734.757 467.341 795.094 444.707 855.895 418.216C889.77 403.452 923.799 387.454 957.572 370.171C1017.86 339.358 1077.42 304.379 1134.15 264.719C1153.56 251.139 1158.3 224.442 1144.71 205.049L1144.86 205.1Z" fill="#E6007E"/>
<path d="M2081.48 308.598C2080.45 326.653 2079.93 341.828 2079.93 347.486V666.567C2079.93 683.697 2084.62 697.997 2093.88 709.468C2103.15 720.939 2114.89 726.701 2129.1 726.701C2143.3 726.701 2155.04 720.991 2164.31 709.468C2173.58 697.997 2178.21 683.697 2178.21 666.567V451.189C2160.81 391.622 2139.7 341.108 2081.48 308.598Z" fill="#F8F8F8"/>
</g>
<defs>
<clipPath id="clip0_297_733">
<rect width="659.557" height="194.085" fill="white" transform="translate(1970 855.916)"/>
</clipPath>
<clipPath id="clip1_297_733">
<rect width="2558.55" height="704.828" fill="white" transform="translate(71 30)"/>
</clipPath>
</defs>
</svg>
