<svg width="3240" height="1080" viewBox="0 0 3240 1080" fill="none" xmlns="http://www.w3.org/2000/svg">
<g clip-path="url(#clip0_297_714)">
<path d="M2441.44 476.231C2467.44 516.526 2480.45 572.261 2480.45 643.499V899.139C2480.45 916.462 2474.79 930.96 2463.42 942.572C2452.12 954.246 2437.79 960.02 2420.46 960.02C2403.12 960.02 2388.79 954.183 2377.49 942.572C2366.12 930.96 2360.53 916.462 2360.53 899.139V643.499C2360.53 606.907 2352.86 578.098 2337.53 557.135C2322.21 536.171 2295.88 525.69 2258.57 525.69C2221.26 525.69 2189.59 536.862 2167.61 559.143C2145.62 581.487 2134.63 609.543 2134.63 643.499V899.139C2134.63 916.462 2128.97 930.96 2117.67 942.572C2106.3 954.246 2092.04 960.02 2074.7 960.02C2057.36 960.02 2043.04 954.183 2031.73 942.572C2020.42 930.96 2014.77 916.462 2014.77 899.139V486.776C2014.77 469.452 2020.42 455.017 2031.73 443.342C2043.04 431.731 2057.36 425.894 2074.7 425.894C2092.04 425.894 2106.36 431.731 2117.67 443.342C2128.97 455.017 2134.63 469.452 2134.63 486.776V503.722C2152.59 479.746 2176.09 459.159 2205.11 441.836C2234.07 424.513 2265.92 415.852 2300.53 415.852C2368.5 415.852 2415.49 435.999 2441.44 476.294V476.231Z" fill="#F8F8F8"/>
<path d="M3162.04 432.798C3173.35 444.096 3179 458.783 3179 476.733V899.139C3179 916.462 3173.35 930.961 3162.04 942.572C3150.73 954.246 3136.41 960.02 3119.07 960.02C3101.73 960.02 3087.6 954.372 3076.6 943.011C3065.61 931.714 3059.77 917.403 3059.14 900.08C3042.49 919.412 3020 935.856 2991.67 949.539C2963.34 963.159 2933.5 970 2902.22 970C2856.23 970 2814.58 958.2 2777.27 934.538C2739.95 910.939 2710.43 878.113 2688.82 836.186C2667.15 794.259 2656.34 746.621 2656.34 693.397C2656.34 640.172 2667.02 592.409 2688.32 550.105C2709.61 507.865 2738.76 474.85 2775.76 451.251C2812.76 427.652 2853.53 415.789 2898.2 415.789C2930.17 415.789 2960.14 421.626 2988.15 433.238C3016.11 444.912 3039.79 459.724 3059.14 477.675V476.671C3059.14 459.348 3064.79 444.912 3076.16 433.238C3087.47 421.626 3101.79 415.789 3119.13 415.789C3136.47 415.789 3150.79 421.438 3162.1 432.798H3162.04ZM3023.08 812.775C3050.41 781.142 3064.04 741.349 3064.04 693.459C3064.04 645.57 3050.35 605.589 3023.08 573.642C2995.76 541.695 2960.45 525.69 2917.11 525.69C2873.76 525.69 2839.46 541.695 2812.13 573.642C2784.81 605.589 2771.18 645.57 2771.18 693.459C2771.18 741.349 2784.68 781.204 2811.63 812.775C2838.64 844.408 2873.76 860.225 2917.11 860.225C2960.45 860.225 2995.69 844.408 3023.08 812.775Z" fill="#F8F8F8"/>
<path d="M1946.67 476.231H1946.99C1921.67 435.999 1876 415.852 1810.04 415.852C1770.71 415.852 1735.54 427.212 1704.57 449.807C1673.6 472.402 1650.42 497.759 1635.09 525.69C1611.72 452.443 1558.07 415.852 1474.14 415.852C1440.16 415.852 1409.31 424.388 1381.67 441.334C1354.03 458.343 1331.17 478.804 1313.2 502.78V486.776C1313.2 483.888 1313.01 474.85 1312.7 472.151C1276.64 496.441 1225.94 529.644 1193.34 550.795V899.139C1193.34 916.462 1198.99 930.96 1210.3 942.572C1221.61 954.183 1235.93 960.02 1253.27 960.02C1270.61 960.02 1284.87 954.246 1296.24 942.572C1307.55 930.96 1313.2 916.462 1313.2 899.139V643.499C1313.2 609.543 1323.69 581.487 1344.67 559.143C1365.65 536.862 1396.12 525.69 1432.12 525.69C1468.11 525.69 1493.24 536.171 1507.56 557.135C1521.89 578.098 1529.05 606.907 1529.05 643.499V899.139C1529.05 916.462 1534.64 930.96 1546.01 942.572C1557.32 954.183 1571.64 960.02 1588.98 960.02C1606.32 960.02 1620.64 954.246 1631.95 942.572C1643.32 930.96 1648.97 916.462 1648.97 899.139V643.499C1648.97 609.543 1659.46 581.487 1680.44 559.143C1701.42 536.862 1731.89 525.69 1767.89 525.69C1803.88 525.69 1829.01 536.171 1843.33 557.135C1857.66 578.098 1864.82 606.907 1864.82 643.499V899.139C1864.82 916.462 1870.47 930.96 1881.78 942.572C1893.09 954.183 1907.41 960.02 1924.75 960.02C1942.09 960.02 1956.41 954.246 1967.72 942.572C1979.02 930.96 1984.68 916.462 1984.68 899.139V643.499C1984.68 572.261 1971.99 516.526 1946.67 476.231Z" fill="#F8F8F8"/>
<path d="M2644.97 208.854C2649.12 207.913 2650.81 211.051 2653.01 213.75C2664.07 255.049 2677.2 300.051 2709.8 329.55C2735.49 352.899 2771.36 365.075 2804.41 374.553C2810.12 376.247 2826.08 377.252 2821.62 387.294C2819.48 392.001 2809.75 392.692 2805.35 393.947C2773.31 403.299 2738.51 414.91 2713.13 436.501C2681.41 463.427 2666.33 506.233 2655.46 545.21C2654.71 548.034 2654.39 552.427 2653.33 554.813C2653.14 555.252 2650.12 558.892 2649.81 559.081C2645.91 561.717 2641.64 559.081 2640.07 555.126C2639.19 553.055 2638.19 549.289 2637.56 546.967C2622.61 493.492 2606.59 447.924 2555.27 419.492C2530.64 405.809 2504.95 400.412 2478.31 392.001C2473.1 390.307 2468.01 386.29 2472.03 380.829C2475.3 376.373 2484.34 376.059 2489.24 374.553C2526.62 363.318 2564.94 350.388 2592.02 320.575C2614.82 295.469 2626.82 260.321 2636.18 228.186C2637.56 223.29 2639.26 210.047 2645.1 208.791H2644.97V208.854Z" fill="#E6007E"/>
<path d="M78.1699 798.214C77.6674 797.837 77.1648 797.461 76.7251 797.021C77.2277 797.398 77.6674 797.837 78.1699 798.214Z" fill="#7D1751"/>
<path d="M308.34 679.024C298.415 650.654 291.63 621.029 288.05 590.023C219.451 625.36 151.794 665.09 87.0903 709.653C92.9954 706.766 99.5914 704.945 106.564 704.506C107.758 704.443 186.471 699.045 308.403 679.024H308.34Z" fill="#7D1751"/>
<path d="M57.6909 760.052C56.8743 747.813 60.3922 736.264 66.9254 726.912C54.1102 744.235 53.3564 768.399 66.9254 786.915C69.3753 790.242 72.1394 793.129 75.1547 795.702C65.2293 786.852 58.6332 774.299 57.7537 760.052H57.6909Z" fill="#7D1751"/>
<path d="M1294.48 310.785C1301.96 305.575 1310.31 302.563 1318.85 301.621C1318.67 301.621 1318.48 301.621 1318.29 301.621C1313.07 301.998 1224.12 308.525 1087.74 332.25C1102.57 358.862 1114.25 386.667 1122.67 415.727C1181.4 384.282 1239.14 349.448 1294.48 310.722V310.785Z" fill="#7D1751"/>
<path d="M929.624 753.023C870.009 812.963 799.086 843.781 715.222 843.781C631.358 843.781 560.435 813.026 500.819 753.023C499.625 751.768 498.495 750.45 497.301 749.194C447.485 760.178 400.936 769.216 358.596 776.623C373.672 798.276 390.885 819.051 410.61 838.822C494.411 921.42 594.357 963.535 712.081 963.535C829.804 963.535 929.75 923.052 1013.55 838.822C1097.35 754.592 1139.25 654.169 1139.25 535.921C1139.25 532.28 1139.19 528.703 1139.13 525.125C1097.92 546.214 1056.39 565.734 1015.06 583.747C1005.95 648.018 977.807 704.694 929.75 753.023H929.624Z" fill="#F8F8F8"/>
<path d="M435.236 655.487C432.66 649.399 430.273 643.248 428.137 637.034C417.395 605.526 412.055 571.947 412.055 535.983C412.055 534.351 412.118 532.719 412.181 531.025C413.312 448.991 442.334 379.26 500.756 320.512C558.802 260.572 631.295 229.755 715.159 229.755C799.023 229.755 869.946 260.509 929.562 320.512C941.183 332.187 951.611 344.363 960.972 356.916C982.707 386.29 998.161 418.048 1007.46 452.381C1009.09 458.406 1010.47 464.494 1011.73 470.645C1048.79 453.636 1085.86 435.371 1122.61 415.726C1114.19 386.666 1102.57 358.861 1087.68 332.249C1068.33 297.603 1043.64 265.028 1013.36 234.65C929.625 152.115 829.679 110 711.955 110C594.232 110 494.286 150.483 410.485 234.713C326.684 317.311 284.783 417.797 284.783 535.983C284.783 554.436 285.914 572.449 287.987 590.023C291.568 621.029 298.352 650.654 308.278 679.024C346.66 672.747 389.252 664.964 435.173 655.487H435.236Z" fill="#F8F8F8"/>
<path d="M78.861 715.301C81.5622 713.418 84.3263 711.535 87.0903 709.715C78.9238 713.669 72.0137 719.632 66.9253 726.975C70.1291 722.582 74.1495 718.627 78.861 715.364V715.301Z" fill="#E6007E"/>
<path d="M76.6623 797.084C76.0969 796.644 75.5944 796.205 75.0918 795.766C75.5944 796.205 76.1597 796.644 76.6623 797.084Z" fill="#E6007E"/>
<path d="M1367.35 323.65C1356.04 307.456 1337.13 299.674 1318.79 301.619C1310.31 302.561 1301.96 305.511 1294.42 310.783C1239.07 349.509 1181.28 384.343 1122.61 415.788C1085.92 435.433 1048.86 453.698 1011.73 470.707C833.071 552.678 654.287 605.212 515.519 637.786C487.816 644.314 460.992 650.151 435.173 655.486C389.252 664.963 346.66 672.746 308.278 679.023C186.345 699.045 107.632 704.442 106.439 704.505C99.4658 704.944 92.9326 706.765 86.9647 709.652C84.2635 711.535 81.4995 713.355 78.7354 715.238C74.0239 718.564 70.0035 722.518 66.7997 726.849C60.2665 736.201 56.7486 747.75 57.5653 759.989C58.5075 774.299 65.0408 786.852 74.9662 795.639C75.4688 796.079 76.0342 796.518 76.5367 796.957C77.0393 797.334 77.479 797.773 77.9816 798.15C87.6558 805.556 99.9684 809.636 113.098 808.757C118.437 808.38 213.546 801.978 358.345 776.559C400.685 769.153 447.234 760.114 497.05 749.131C510.242 746.243 523.56 743.231 537.192 740.03C613.894 722.142 702.344 698.291 796.447 667.097C866.931 643.623 940.555 616.007 1014.74 583.683C1056.08 565.67 1097.6 546.15 1138.81 525.061C1212.37 487.465 1285.06 444.785 1354.28 396.394C1377.97 379.824 1383.75 347.249 1367.16 323.587L1367.35 323.65Z" fill="#E6007E"/>
<path d="M2510.22 449.934C2508.97 471.964 2508.34 490.48 2508.34 497.384V886.712C2508.34 907.613 2514.06 925.061 2525.36 939.058C2536.67 953.054 2550.99 960.084 2568.33 960.084C2585.67 960.084 2599.99 953.117 2611.3 939.058C2622.61 925.061 2628.26 907.613 2628.26 886.712V623.917C2607.03 551.236 2581.27 489.601 2510.22 449.934Z" fill="#F8F8F8"/>
</g>
<defs>
<clipPath id="clip0_297_714">
<rect width="3122" height="860" fill="white" transform="translate(57 110)"/>
</clipPath>
</defs>
</svg>
