<svg width="1080" height="1080" viewBox="0 0 1080 1080" fill="none" xmlns="http://www.w3.org/2000/svg">
<path d="M1030.21 421.12C993.931 410.666 954.461 397.259 926.194 371.571C890.38 339.085 875.895 289.536 863.753 244.112C861.316 241.111 859.441 237.689 854.894 238.721H854.987C848.565 240.08 846.69 254.659 845.19 260.05C834.924 295.395 821.751 334.069 796.625 361.68C766.858 394.494 724.716 408.697 683.651 421.12C678.307 422.714 668.369 423.089 664.76 428.011C660.306 433.964 665.932 438.464 671.651 440.293C700.949 449.574 729.216 455.575 756.264 470.575C812.657 501.889 830.283 552.048 846.737 610.879C847.44 613.41 848.612 617.535 849.55 619.832C851.284 624.192 855.972 627.051 860.284 624.192C860.66 623.958 863.894 619.926 864.128 619.504C865.3 616.879 865.629 612.051 866.472 608.957C878.379 566.064 894.974 518.906 929.85 489.279C957.742 465.513 996.041 452.809 1031.29 442.449C1036.07 441.09 1046.81 440.246 1049.15 435.089C1054.03 424.073 1036.54 422.948 1030.26 421.073L1030.21 421.12Z" fill="#E6007E"/>
<path d="M217.46 645.991C210.053 624.803 204.991 602.677 202.319 579.52C151.129 605.911 100.642 635.585 52.3584 668.867C56.7649 666.711 61.687 665.352 66.8903 665.024C67.781 664.977 126.518 660.945 217.507 645.991H217.46Z" fill="#7D1751"/>
<path d="M30.4221 706.503C29.9065 698.628 31.7816 691.221 35.3911 684.846C27.8439 697.503 27.9845 713.816 37.3131 726.566C39.1413 729.051 41.2039 731.207 43.454 733.129C36.0474 726.52 31.1253 717.144 30.469 706.503H30.4221Z" fill="#7D1751"/>
<path d="M744.784 574.872C737.986 622.874 716.985 665.204 681.124 701.3C636.638 746.067 583.714 769.084 521.133 769.084C458.551 769.084 405.627 746.114 361.141 701.3C360.25 700.362 359.406 699.378 358.516 698.44C321.342 706.644 286.606 713.394 255.011 718.925C266.261 735.098 279.106 750.614 293.825 765.381C356.359 827.071 430.941 858.526 518.789 858.526C606.637 858.526 681.218 828.29 743.752 765.381C776.754 732.192 800.943 695.581 816.553 655.501C806.427 620.014 795.317 587.904 774.832 561.465C764.847 566.059 754.862 570.512 744.877 574.872H744.784Z" fill="#F8F8F8"/>
<path d="M254.776 639.566C272.964 636.285 292.184 632.582 312.201 628.41C310.279 623.863 308.497 619.269 306.903 614.628C298.887 591.095 294.903 566.016 294.903 539.156C294.903 537.937 294.95 536.718 294.997 535.452C295.84 474.184 317.498 422.103 361.093 378.226C404.408 333.458 458.504 310.442 521.085 310.442C580.01 310.442 630.356 330.833 673.202 370.585C703.25 360.882 732.877 348.834 756.69 327.974C752.471 323.286 748.158 318.645 743.658 314.098C681.124 252.455 606.496 221 518.695 221C430.894 221 356.265 251.236 293.731 314.145C231.197 375.835 199.93 450.886 199.93 539.156C199.93 552.937 200.773 566.391 202.32 579.517C204.992 602.674 210.055 624.8 217.462 645.989C229.369 644.02 241.791 641.91 254.729 639.566H254.776Z" fill="#F8F8F8"/>
<path d="M46.2221 673.078C48.2378 671.672 50.3004 670.266 52.363 668.859C46.269 671.813 41.1125 676.266 37.3154 681.751C39.7062 678.469 42.7063 675.516 46.2221 673.031V673.078Z" fill="#E6007E"/>
<path d="M388.424 691.598C445.661 678.238 511.664 660.425 581.886 637.127C634.483 619.595 689.423 598.969 744.785 574.827C754.77 570.468 764.754 566.014 774.739 561.42C767.004 551.436 758.004 542.201 747.082 533.95C741.175 529.497 734.753 525.278 727.721 521.387C718.721 516.371 709.58 512.434 700.345 509.012C581.371 559.733 464.787 593.438 372.158 615.189C351.485 620.064 331.468 624.423 312.202 628.408C292.185 632.533 273.013 636.236 254.777 639.565C241.839 641.909 229.37 644.065 217.51 645.987C126.521 660.941 67.7842 664.972 66.8936 665.019C61.6902 665.347 56.815 666.707 52.3616 668.863C50.3459 670.269 48.2833 671.629 46.2207 673.082C42.6581 675.566 39.7048 678.52 37.3141 681.801C36.564 682.785 36.0015 683.864 35.3921 684.895C31.7826 691.27 29.9075 698.724 30.4231 706.552C31.1263 717.24 36.0015 726.616 43.4081 733.178C43.7831 733.507 44.205 733.835 44.6269 734.163C45.0019 734.444 45.3301 734.772 45.7051 735.054C52.9242 740.585 62.1121 743.632 71.9094 743.023C75.894 742.741 146.866 737.96 254.918 718.975C286.513 713.443 321.249 706.693 358.423 698.489C368.267 696.333 378.205 694.083 388.377 691.692L388.424 691.598Z" fill="#E6007E"/>
<path d="M35.3926 684.846C36.002 683.815 36.5645 682.736 37.3145 681.752C36.6114 682.736 36.002 683.768 35.3926 684.846Z" fill="#E6007E"/>
</svg>
